<svg width="32" height="32" viewBox="0 0 32 32" fill="none" xmlns="http://www.w3.org/2000/svg">
<rect width="32" height="32" fill="white"/>
<path d="M2.5 5.2218C2.5 4.82316 2.82316 4.5 3.2218 4.5H9.7782C10.1768 4.5 10.5 4.82316 10.5 5.2218V14.5H2.5V5.2218Z" fill="#A655BB"/>
<path d="M21.5 5.2218C21.5 4.82316 21.8232 4.5 22.2218 4.5H28.7782C29.1768 4.5 29.5 4.82316 29.5 5.2218V14.5H21.5V5.2218Z" fill="#A655BB"/>
<path d="M11.5 5.2218C11.5 4.82316 11.8232 4.5 12.2218 4.5H19.7782C20.1768 4.5 20.5 4.82316 20.5 5.2218V14.5H11.5V5.2218Z" fill="#313131"/>
<path d="M2.5 26.7782C2.5 27.1768 2.82316 27.5 3.2218 27.5H9.7782C10.1768 27.5 10.5 27.1768 10.5 26.7782V16.5H2.5V26.7782Z" fill="#A655BB"/>
<path d="M21.5 26.7782C21.5 27.1768 21.8232 27.5 22.2218 27.5H28.7782C29.1768 27.5 29.5 27.1768 29.5 26.7782V16.5H21.5V26.7782Z" fill="#A655BB"/>
<path d="M11.5 26.7782C11.5 27.1768 11.8232 27.5 12.2218 27.5H19.7782C20.1768 27.5 20.5 27.1768 20.5 26.7782V16.5H11.5V26.7782Z" fill="#313131"/>
</svg>
